<svg width="219" height="39" viewBox="0 0 219 39" fill="none" xmlns="http://www.w3.org/2000/svg">
<path d="M12.6308 38.9921C5.02352 38.9921 0 34.6611 0 28.046H4.25559C4.25559 32.377 7.73526 35.1748 12.6308 35.1748C18.3022 35.1748 21.006 32.8828 21.006 29.192C21.006 26.5207 19.7181 24.6081 12.5028 23.3357C5.15151 22.0632 1.0319 19.7713 1.0319 14.1678C1.0319 8.56439 5.54347 5 12.5028 5C19.4621 5 24.2297 8.81729 24.2297 15.1874H20.1021C20.1021 11.3701 17.5263 8.8252 12.5028 8.8252C7.47928 8.8252 5.02352 10.9907 5.02352 14.0414C5.02352 16.8391 6.57537 18.2459 13.2707 19.5184C20.494 20.9172 24.9976 22.9563 24.9976 29.192C25.1256 35.5621 20.1021 39 12.6308 39" fill="#292A69"/>
<path d="M40.8089 17.0267C36.285 17.0267 32.7673 21.1906 32.7673 26.2582C32.7673 31.3259 36.285 35.3606 40.8089 35.3606C45.3328 35.3606 48.9753 31.334 48.9753 26.2582C48.9753 21.1825 45.3328 17.0267 40.8089 17.0267ZM53 38.4755H49.2327V34.4488C47.5947 37.0472 44.4514 39 40.9337 39C34.0231 39 29 33.1496 29 26C29 18.8504 34.1479 13 40.9337 13C44.4514 13 47.4699 15.0819 49.2327 17.5512V13.6536H53V38.4836V38.4755Z" fill="#292A69"/>
<path d="M81 38H76.9082V23.1855C76.9082 19.4519 74.7927 16.6137 70.7009 16.6137C66.8633 16.6137 64.0918 19.316 64.0918 23.0496V37.992H60V13.5197H63.9606V16.2219C65.6743 14.1593 68.3229 13 71.2257 13C77.433 13 80.8688 17.2533 80.8688 23.4333V37.992H81" fill="#292A69"/>
<path d="M97.9337 17.1918C93.4098 17.1918 89.8921 21.3164 89.8921 26.3539C89.8921 31.3915 93.4098 35.388 97.9337 35.388C102.458 35.388 106.1 31.3915 106.1 26.3539C106.1 21.3164 102.333 17.1918 97.9337 17.1918ZM110 38.4794H106.225V34.483C104.595 37.0618 101.451 39 97.9337 39C91.0231 39 86 33.1935 86 26.2258C86 19.2581 91.1479 13.1953 97.9337 13.1953C101.327 13.1953 104.345 15.1335 106.1 17.5842V3H110V38.4794Z" fill="#292A69"/>
<path d="M138.354 32.0647L143.698 14H148L140.569 38H136.276L130.931 19.6844L125.724 38H121.423L114 14H118.302L123.638 32.0647L128.845 14H133.147L138.354 32.0647Z" fill="#292A69"/>
<path d="M182.397 39C175.482 39 170 33.2502 170 26.0649C170 18.8796 175.611 13 182.397 13C187.87 13 192.308 16.2682 194 21.3612H189.571C188.13 18.6201 185.652 16.917 182.397 16.917C177.83 16.917 174.049 21.1017 174.049 26.0649C174.049 31.0281 177.83 35.2127 182.397 35.2127C185.652 35.2127 188.267 33.5178 189.571 30.7686H194C192.308 35.7318 187.87 39 182.397 39Z" fill="#292A69"/>
<path d="M219 38H215.105V23.36C215.105 19.544 212.966 17 209.187 17C205.409 17 202.903 19.6704 202.903 23.2336V38H199V3H202.903V16.2336C204.535 14.3217 206.923 13.1761 209.695 13.1761C215.604 13.1761 218.875 17.3792 218.875 23.4865V38H219Z" fill="#292A69"/>
<path d="M157 3.5C157 5.434 158.564 7 160.504 7C162.444 7 164 5.434 164 3.5C164 1.566 162.436 0 160.504 0C158.572 0 157 1.566 157 3.5Z" fill="#F89C22"/>
<path d="M162 14.0709L173.868 2L176 4.3086L165.449 15.3316V38H162V14.0709Z" fill="#85C7BA"/>
<path d="M159 14.0709L146.285 2L144 4.3086L155.303 15.3316V38H159V14.0709Z" fill="#F89C22"/>
</svg>
