<svg width="184" height="33" viewBox="0 0 184 33" fill="none" xmlns="http://www.w3.org/2000/svg">
<path d="M10.5082 32.4678C4.17931 32.4678 0 28.8574 0 23.3428H3.54044C3.54044 26.9533 6.43534 29.2856 10.5082 29.2856C15.2265 29.2856 17.4759 27.375 17.4759 24.2981C17.4759 22.0712 16.4045 20.4768 10.4017 19.4161C4.28579 18.3553 0.858489 16.4447 0.858489 11.7735C0.858489 7.10226 4.61189 4.13086 10.4017 4.13086C16.1915 4.13086 20.1579 7.31309 20.1579 12.6234H16.7239C16.7239 9.44116 14.581 7.31967 10.4017 7.31967C6.22238 7.31967 4.17931 9.12491 4.17931 11.6681C4.17931 14.0004 5.47037 15.1731 11.0406 16.2339C17.05 17.4 20.7967 19.0998 20.7967 24.2981C20.9032 29.6084 16.7239 32.4744 10.5082 32.4744" fill="white"/>
<path d="M34.2006 14.4283C30.3407 14.4283 27.3393 17.8279 27.3393 21.9655C27.3393 26.103 30.3407 29.3973 34.2006 29.3973C38.0605 29.3973 41.1683 26.1096 41.1683 21.9655C41.1683 17.8213 38.0605 14.4283 34.2006 14.4283ZM44.6023 31.9404H41.388V28.6528C39.9904 30.7742 37.3085 32.3687 34.3071 32.3687C28.4108 32.3687 24.125 27.592 24.125 21.7546C24.125 15.9173 28.5173 11.1406 34.3071 11.1406C37.3085 11.1406 39.8839 12.8404 41.388 14.8565V11.6743H44.6023V31.947V31.9404Z" fill="white"/>
<path d="M67.3285 31.94H64.0077V19.7316C64.0077 16.6548 62.2907 14.3159 58.9699 14.3159C55.8554 14.3159 53.606 16.5428 53.606 19.6196V31.9334H50.2852V11.7661H53.4995V13.993C54.8904 12.2932 57.0399 11.3379 59.3958 11.3379C64.4336 11.3379 67.222 14.843 67.222 19.9358V31.9334H67.3285" fill="white"/>
<path d="M81.8032 14.4287C77.9433 14.4287 74.9419 17.8217 74.9419 21.9659C74.9419 26.11 77.9433 29.3976 81.8032 29.3976C85.663 29.3976 88.7709 26.11 88.7709 21.9659C88.7709 17.8217 85.5566 14.4287 81.8032 14.4287ZM92.0984 31.9408H88.8774V28.6531C87.4865 30.7746 84.8046 32.369 81.8032 32.369C75.9069 32.369 71.6211 27.5924 71.6211 21.8604C71.6211 16.1285 76.0134 11.141 81.8032 11.141C84.6981 11.141 87.2735 12.7354 88.7709 14.7515V2.75391H92.0984V31.9408Z" fill="white"/>
<path d="M115.357 26.9533L119.756 11.7734H123.297L117.181 31.9407H113.647L109.248 16.5501L104.962 31.9407H101.422L95.3125 11.7734H98.8529L103.245 26.9533L107.531 11.7734H111.071L115.357 26.9533Z" fill="white"/>
<path d="M152.353 32.4683C146.669 32.4683 142.164 27.7971 142.164 21.9597C142.164 16.1223 146.776 11.3457 152.353 11.3457C156.852 11.3457 160.498 14.0009 161.889 18.1384H158.249C157.065 15.9115 155.028 14.5279 152.353 14.5279C148.599 14.5279 145.492 17.9276 145.492 21.9597C145.492 25.9919 148.599 29.3915 152.353 29.3915C155.028 29.3915 157.178 28.0145 158.249 25.781H161.889C160.498 29.8132 156.852 32.4683 152.353 32.4683Z" fill="white"/>
<path d="M183.011 31.9408H179.69V19.7324C179.69 16.5501 177.867 14.4287 174.646 14.4287C171.425 14.4287 169.288 16.6556 169.288 19.627V31.9408H165.961V2.75391H169.288V13.7896C170.679 12.1952 172.716 11.2398 175.078 11.2398C180.116 11.2398 182.904 14.7449 182.904 19.8378V31.9408H183.011Z" fill="white"/>
<path d="M131.031 2.94504C131.031 4.57239 132.362 5.89008 134.013 5.89008C135.663 5.89008 136.987 4.57239 136.987 2.94504C136.987 1.31769 135.656 0 134.013 0C132.369 0 131.031 1.31769 131.031 2.94504Z" fill="white"/>
<path d="M135.164 11.7927L145.539 1.69922L147.403 3.62964L138.179 12.8469V31.8019H135.164V11.7927Z" fill="white"/>
<path d="M132.681 11.7927L122.313 1.69922L120.449 3.62964L129.666 12.8469V31.8019H132.681V11.7927Z" fill="white"/>
</svg>
