<svg width="288" height="41" viewBox="0 0 288 41" fill="none" xmlns="http://www.w3.org/2000/svg">
<path d="M10.4832 32.4678C4.16939 32.4678 0 28.8574 0 23.3428H3.53203C3.53203 26.9533 6.42006 29.2856 10.4832 29.2856C15.1904 29.2856 17.4344 27.375 17.4344 24.2981C17.4344 22.0712 16.3655 20.4768 10.377 19.4161C4.27561 18.3553 0.85645 16.4447 0.85645 11.7735C0.85645 7.10226 4.60093 4.13086 10.377 4.13086C16.153 4.13086 20.11 7.31309 20.11 12.6234H16.6842C16.6842 9.44116 14.5464 7.31967 10.377 7.31967C6.2076 7.31967 4.16939 9.12491 4.16939 11.6681C4.16939 14.0004 5.45738 15.1731 11.0143 16.2339C17.0095 17.4 20.7473 19.0998 20.7473 24.2981C20.8536 29.6084 16.6842 32.4744 10.4832 32.4744" fill="#292A69"/>
<path d="M34.1181 14.4283C30.2674 14.4283 27.2731 17.8279 27.2731 21.9655C27.2731 26.103 30.2674 29.3973 34.1181 29.3973C37.9688 29.3973 41.0693 26.1096 41.0693 21.9655C41.0693 17.8213 37.9688 14.4283 34.1181 14.4283ZM44.4951 31.9404H41.2884V28.6528C39.8941 30.7742 37.2186 32.3687 34.2243 32.3687C28.342 32.3687 24.0664 27.592 24.0664 21.7546C24.0664 15.9173 28.4482 11.1406 34.2243 11.1406C37.2186 11.1406 39.7879 12.8404 41.2884 14.8565V11.6743H44.4951V31.947V31.9404Z" fill="#292A69"/>
<path d="M67.1689 31.94H63.8559V19.7316C63.8559 16.6548 62.143 14.3159 58.8301 14.3159C55.723 14.3159 53.479 16.5428 53.479 19.6196V31.9334H50.166V11.7661H53.3727V13.993C54.7603 12.2932 56.9048 11.3379 59.255 11.3379C64.2808 11.3379 67.0627 14.843 67.0627 19.9358V31.9334H67.1689" fill="#292A69"/>
<path d="M81.6091 14.4287C77.7584 14.4287 74.7641 17.8217 74.7641 21.9659C74.7641 26.11 77.7584 29.3976 81.6091 29.3976C85.4598 29.3976 88.5603 26.11 88.5603 21.9659C88.5603 17.8217 85.3535 14.4287 81.6091 14.4287ZM91.8798 31.9408H88.6665V28.6532C87.2789 30.7746 84.6033 32.369 81.6091 32.369C75.7268 32.369 71.4512 27.5924 71.4512 21.8604C71.4512 16.1285 75.833 11.141 81.6091 11.141C84.4971 11.141 87.0664 12.7354 88.5603 14.7515V2.75391H91.8798V31.9408Z" fill="#292A69"/>
<path d="M115.083 26.9533L119.472 11.7734H123.004L116.902 31.9407H113.377L108.988 16.5501L104.713 31.9407H101.181L95.0859 11.7734H98.618L103 26.9533L107.275 11.7734H110.807L115.083 26.9533Z" fill="#292A69"/>
<path d="M151.991 32.4683C146.321 32.4683 141.826 27.7971 141.826 21.9597C141.826 16.1223 146.427 11.3457 151.991 11.3457C156.479 11.3457 160.117 14.0009 161.505 18.1384H157.873C156.691 15.9115 154.66 14.5279 151.991 14.5279C148.246 14.5279 145.146 17.9276 145.146 21.9597C145.146 25.9919 148.246 29.3915 151.991 29.3915C154.66 29.3915 156.804 28.0145 157.873 25.781H161.505C160.117 29.8132 156.479 32.4683 151.991 32.4683Z" fill="#292A69"/>
<path d="M182.576 31.9408H179.263V19.7324C179.263 16.5501 177.444 14.4287 174.23 14.4287C171.017 14.4287 168.886 16.6556 168.886 19.627V31.9408H165.566V2.75391H168.886V13.7896C170.274 12.1952 172.305 11.2398 174.662 11.2398C179.688 11.2398 182.47 14.7449 182.47 19.8378V31.9408H182.576Z" fill="#292A69"/>
<path d="M130.719 2.94504C130.719 4.57239 132.047 5.89008 133.693 5.89008C135.34 5.89008 136.661 4.57239 136.661 2.94504C136.661 1.31769 135.333 0 133.693 0C132.053 0 130.719 1.31769 130.719 2.94504Z" fill="#F89C22"/>
<path d="M134.842 11.7927L145.192 1.69922L147.051 3.62964L137.849 12.8469V31.8019H134.842V11.7927Z" fill="#85C7BA"/>
<path d="M132.365 11.7927L122.021 1.69922L120.162 3.62964L129.357 12.8469V31.8019H132.365V11.7927Z" fill="#F89C22"/>
<path d="M194.619 20H191.726V12.663H194.619C196.918 12.663 198.513 14.126 198.513 16.337C198.513 18.548 196.918 20 194.619 20ZM193.288 14.038V18.625H194.619C196.071 18.625 196.918 17.58 196.918 16.337C196.918 15.039 196.126 14.038 194.619 14.038H193.288ZM201.514 20H199.952V12.663H201.514V20ZM202.948 16.337C202.948 14.016 204.708 12.542 206.853 12.542C208.371 12.542 209.328 13.279 209.889 14.148L208.591 14.852C208.25 14.335 207.623 13.928 206.853 13.928C205.522 13.928 204.554 14.951 204.554 16.337C204.554 17.723 205.522 18.746 206.853 18.746C207.524 18.746 208.118 18.471 208.437 18.185V17.294H206.479V15.952H209.977V18.757C209.229 19.593 208.184 20.143 206.853 20.143C204.708 20.143 202.948 18.647 202.948 16.337ZM213.109 20H211.547V12.663H213.109V20ZM218.163 20H216.59V14.038H214.445V12.663H220.297V14.038H218.163V20ZM227.761 20H226.056L225.594 18.735H222.316L221.854 20H220.138L222.976 12.663H224.934L227.761 20ZM225.165 17.382L223.955 14.016L222.734 17.382H225.165ZM233.432 20H228.768V12.663H230.33V18.625H233.432V20ZM244.601 20H243.028V16.92H239.563V20H238.001V12.663H239.563V15.545H243.028V12.663H244.601V20ZM251.569 20H246.377V12.663H251.569V14.005H247.939V15.6H251.492V16.942H247.939V18.647H251.569V20ZM259.962 20H258.257L257.795 18.735H254.517L254.055 20H252.339L255.177 12.663H257.135L259.962 20ZM257.366 17.382L256.156 14.016L254.935 17.382H257.366ZM265.633 20H260.969V12.663H262.531V18.625H265.633V20ZM269.228 20H267.655V14.038H265.51V12.663H271.362V14.038H269.228V20ZM279.294 20H277.721V16.92H274.256V20H272.694V12.663H274.256V15.545H277.721V12.663H279.294V20ZM193.288 32H191.726V24.663H193.288V32ZM201.642 32H200.135L196.637 27.072V32H195.075V24.663H196.681L200.08 29.415V24.663H201.642V32ZM206.685 32H205.112V26.038H202.967V24.663H208.819V26.038H206.685V32ZM215.343 32H210.151V24.663H215.343V26.005H211.713V27.6H215.266V28.942H211.713V30.647H215.343V32ZM216.542 28.337C216.542 26.016 218.302 24.542 220.447 24.542C221.965 24.542 222.922 25.279 223.483 26.148L222.185 26.852C221.844 26.335 221.217 25.928 220.447 25.928C219.116 25.928 218.148 26.951 218.148 28.337C218.148 29.723 219.116 30.746 220.447 30.746C221.118 30.746 221.712 30.471 222.031 30.185V29.294H220.073V27.952H223.571V30.757C222.823 31.593 221.778 32.143 220.447 32.143C218.302 32.143 216.542 30.647 216.542 28.337ZM231.081 32H229.288L227.847 29.371H226.703V32H225.141V24.663H228.573C230.102 24.663 231.037 25.664 231.037 27.028C231.037 28.326 230.223 29.019 229.431 29.206L231.081 32ZM229.442 27.017C229.442 26.401 228.969 26.005 228.342 26.005H226.703V28.029H228.342C228.969 28.029 229.442 27.633 229.442 27.017ZM239.381 32H237.676L237.214 30.735H233.936L233.474 32H231.758L234.596 24.663H236.554L239.381 32ZM236.785 29.382L235.575 26.016L234.354 29.382H236.785ZM242.947 32H241.374V26.038H239.229V24.663H245.081V26.038H242.947V32ZM245.791 28.337C245.791 26.126 247.408 24.542 249.619 24.542C251.841 24.542 253.458 26.126 253.458 28.337C253.458 30.548 251.841 32.132 249.619 32.132C247.408 32.132 245.791 30.548 245.791 28.337ZM251.852 28.337C251.852 26.962 250.972 25.928 249.619 25.928C248.266 25.928 247.397 26.962 247.397 28.337C247.397 29.701 248.266 30.746 249.619 30.746C250.972 30.746 251.852 29.701 251.852 28.337ZM260.824 32H259.031L257.59 29.371H256.446V32H254.884V24.663H258.316C259.845 24.663 260.78 25.664 260.78 27.028C260.78 28.326 259.966 29.019 259.174 29.206L260.824 32ZM259.185 27.017C259.185 26.401 258.712 26.005 258.085 26.005H256.446V28.029H258.085C258.712 28.029 259.185 27.633 259.185 27.017Z" fill="#292A69"/>
</svg>
